<svg xmlns="http://www.w3.org/2000/svg" xmlns:svg="http://www.w3.org/2000/svg" id="svg2" width="1056" height="816" version="1.1" viewBox="0 0 1056 816" xml:space="preserve"><metadata id="metadata8"/><defs id="defs6"><linearGradient id="linearGradient34" x1="0" x2="1" y1="0" y2="0" gradientTransform="matrix(448.07895,9.9045258,9.9045258,-448.07895,273.5459,365.52832)" gradientUnits="userSpaceOnUse" spreadMethod="pad"><stop style="stop-opacity:1;stop-color:#5ccaf4" id="stop28" offset="0"/><stop style="stop-opacity:1;stop-color:#05aeef" id="stop30" offset=".5"/><stop style="stop-opacity:1;stop-color:#0995dd" id="stop32" offset="1"/></linearGradient><linearGradient id="linearGradient56" x1="0" x2="1" y1="0" y2="0" gradientTransform="matrix(549.35083,0,0,-549.35083,-88.340332,242.63379)" gradientUnits="userSpaceOnUse" spreadMethod="pad"><stop style="stop-opacity:1;stop-color:#5787c5" id="stop50" offset="0"/><stop style="stop-opacity:1;stop-color:#191a42" id="stop52" offset=".641"/><stop style="stop-opacity:1;stop-color:#191a42" id="stop54" offset="1"/></linearGradient></defs><g id="g10" transform="matrix(1.3333333,0,0,-1.3333333,0,816)"><path d="m 5.5,606.5 h 781 V 5.5 H 5.5 Z" style="fill:#fff;fill-opacity:1;fill-rule:nonzero;stroke:none" id="path12"/><g id="g16"><g id="g18"><g id="g24"><g id="g26"><path d="m 511.025,513.106 c 23.326,-9.037 23.998,-37.43 -14.796,-56.91 v 0 c -38.783,-19.475 -53.265,-13.673 -63.275,1.542 v 0 c -9.996,15.219 14.922,20.179 -0.511,43.917 v 0 C 417.014,525.409 330.744,439.799 330.744,439.799 v 0 c 30.896,-40.001 97.379,-108.153 48.128,-107.206 v 0 c -49.236,0.933 -50.489,-18.144 -29.515,-60.655 v 0 c 20.991,-42.502 50.155,-24.973 57.515,-5.862 v 0 c 15.451,40.025 50.618,7.088 54.138,-90.316 v 0 c 0,0 127.58,37.27 87.717,53.124 v 0 c -19.036,7.561 -36.263,36.903 6.447,57.455 v 0 c 42.726,20.541 61.789,19.093 60.351,-30.129 v 0 c -1.445,-49.242 67.382,16.543 107.696,47.028 v 0 c -7.519,8.274 -46.354,49.129 -62.826,85.627 v 0 c -16.482,36.522 85.054,-9.835 50.956,70.011 v 0 c -34.127,79.839 -61.686,15.535 -79.246,7.405 v 0 c -17.547,-8.16 -37.692,100.251 -37.692,100.251 v 0 C 469.83,554.34 487.697,522.151 511.025,513.106" style="fill:url(#linearGradient34);stroke:none" id="path36"/></g></g></g></g><g id="g38"><g id="g40"><g id="g46"><g id="g48"><path d="m 275.147,393.432 c -9.625,-6.689 -19.65,-12.817 -29.384,-17.331 v 0 c -16.893,-7.833 -16.15,10.003 -18.491,27.837 v 0 c -2.696,20.545 -9.485,41.089 -52.038,22.401 v 0 C 95.749,391.398 160.33,364.498 168.638,347.021 v 0 C 176.98,329.557 68.779,308.308 68.779,308.308 v 0 c 13.468,-124.452 45.471,-106.26 54.275,-82.836 v 0 c 8.799,23.415 37.186,24.382 57.06,-14.213 v 0 c 19.87,-38.583 14.218,-53.125 -0.897,-63.291 v 0 c -7.006,-4.705 -11.885,-1.888 -17.45,0.928 v 0 c -6.444,3.261 -13.809,6.52 -26.458,-1.888 v 0 c -23.597,-15.67 64.64,-101.54 64.64,-101.54 v 0 c 0,0 62.085,60.62 81.554,64.735 v 0 c 8.133,1.711 4.143,-13.302 3.496,-28.314 v 0 c -0.903,-20.957 4.713,-41.916 58.932,-17.373 v 0 c 93.066,42.14 7.025,55.116 4.657,72.475 v 0 c -1.697,12.586 16.409,17.9 56.787,26.692 v 0 c 15.305,3.33 33.791,7.158 55.635,12.077 v 0 c -3.52,97.404 -38.687,130.341 -54.138,90.316 v 0 c -7.36,-19.111 -36.524,-36.64 -57.515,5.862 v 0 c -20.974,42.511 -19.721,61.588 29.515,60.655 v 0 c 49.251,-0.947 -17.232,67.205 -48.128,107.206 v 0 c -5.997,-5.568 -29.293,-28.088 -55.597,-46.367" style="fill:url(#linearGradient56);stroke:none" id="path58"/></g></g></g></g></g></svg>